name precision_landing11_filtered_grf.mot
datacolumns 37
datarows 5
range 1.312500 1.314500
endheader
time	1_ground_force_vx	1_ground_force_vy	1_ground_force_vz	1_ground_force_px	1_ground_force_py	1_ground_force_pz	1_ground_torque_x	1_ground_torque_y	1_ground_torque_z	2_ground_force_vx	2_ground_force_vy	2_ground_force_vz	2_ground_force_px	2_ground_force_py	2_ground_force_pz	2_ground_torque_x	2_ground_torque_y	2_ground_torque_z	3_ground_force_vx	3_ground_force_vy	3_ground_force_vz	3_ground_force_px	3_ground_force_py	3_ground_force_pz	3_ground_torque_x	3_ground_torque_y	3_ground_torque_z	4_ground_force_vx	4_ground_force_vy	4_ground_force_vz	4_ground_force_px	4_ground_force_py	4_ground_force_pz	4_ground_torque_x	4_ground_torque_y	4_ground_torque_z
            1.312500	           -9.723898	          768.318076	          162.993156	            0.068729	            0.000000	            0.162611	           -0.223968	           17.696503	            3.754186	           -8.279489	          413.352568	           71.874578	           -0.135148	            0.000000	            0.170135	           -0.204211	           10.195213	            1.772764	            1.704222	           -0.445731	           -0.592398	            0.381508	            1.276011	            1.867650	            0.007072	            0.002138	           -0.005795	           -2.265889	           -0.210778	           -0.021714	           -0.350909	            1.268855	            1.860607	            0.015943	            0.002143	           -0.020519
            1.313000	           -9.950036	          767.810956	          162.722502	            0.068776	            0.000000	            0.162557	           -0.228963	           17.668303	            3.744451	           -8.686358	          411.048590	           71.839142	           -0.135018	            0.000000	            0.169970	           -0.213628	           10.109126	            1.766776	            1.691755	           -0.441094	           -0.591204	            0.381512	            1.275998	            1.867647	            0.007385	            0.001905	           -0.006025	           -2.246395	           -0.221856	           -0.037448	           -0.350911	            1.268856	            1.860605	            0.015490	            0.001980	           -0.021013
            1.313500	          -10.172918	          767.306606	          162.435535	            0.068822	            0.000000	            0.162504	           -0.233887	           17.641218	            3.734571	           -9.088340	          408.744262	           71.804395	           -0.134889	            0.000000	            0.169807	           -0.222881	           10.023996	            1.760923	            1.678801	           -0.437459	           -0.591028	            0.381517	            1.275984	            1.867645	            0.007723	            0.001656	           -0.006270	           -2.225591	           -0.232237	           -0.052709	           -0.350914	            1.268858	            1.860604	            0.015018	            0.001792	           -0.021493
            1.314000	          -10.392452	          766.804520	          162.132194	            0.068868	            0.000000	            0.162454	           -0.238738	           17.615198	            3.724536	           -9.485488	          406.441673	           71.769959	           -0.134762	            0.000000	            0.169646	           -0.231973	            9.939742	            1.755172	            1.665492	           -0.434792	           -0.591893	            0.381521	            1.275971	            1.867642	            0.008084	            0.001392	           -0.006529	           -2.203623	           -0.241864	           -0.067451	           -0.350916	            1.268859	            1.860603	            0.014527	            0.001580	           -0.021956
            1.314500	          -10.608564	          766.304151	          161.812486	            0.068914	            0.000000	            0.162406	           -0.243515	           17.590179	            3.714335	           -9.877890	          404.142919	           71.735357	           -0.134637	            0.000000	            0.169488	           -0.240902	            9.856258	            1.749486	            1.651956	           -0.433059	           -0.593801	            0.381525	            1.275958	            1.867640	            0.008466	            0.001114	           -0.006798	           -2.180651	           -0.250688	           -0.081638	           -0.350918	            1.268860	            1.860602	            0.014020	            0.001349	           -0.022400
